<?xml version="1.0" standalone="no"?>
<!DOCTYPE svg PUBLIC "-//W3C//DTD SVG 20010904//EN"
 "http://www.w3.org/TR/2001/REC-SVG-20010904/DTD/svg10.dtd">
<svg version="1.0" xmlns="http://www.w3.org/2000/svg"
 width="50.000000pt" height="50.000000pt" viewBox="0 0 50.000000 50.000000"
 preserveAspectRatio="xMidYMid meet">
<metadata>
Created by potrace 1.16, written by Peter Selinger 2001-2019
</metadata>
<g transform="translate(0.000000,50.000000) scale(0.100000,-0.100000)"
fill="#000000" stroke="none">
<path d="M200 470 c-29 -29 -27 -94 2 -114 53 -38 118 -5 118 59 0 65 -75 100
-120 55z"/>
<path d="M40 402 c-43 -44 -39 -102 11 -127 42 -22 67 -18 101 15 25 26 29 36
24 63 -8 41 -32 65 -73 73 -27 5 -37 1 -63 -24z"/>
<path d="M370 417 c-34 -17 -55 -63 -44 -95 24 -68 118 -81 149 -22 22 43 19
68 -14 101 -32 32 -53 35 -91 16z"/>
<path d="M210 316 c-6 -8 -10 -28 -9 -43 2 -15 -2 -38 -9 -50 -7 -12 -12 -34
-12 -48 0 -21 -4 -25 -19 -20 -11 3 -22 1 -26 -5 -11 -18 -23 -11 -34 20 -5
17 -14 30 -19 30 -17 0 -72 -32 -72 -41 0 -29 106 -149 131 -149 19 0 8 23
-26 53 -19 17 -43 42 -52 56 l-16 25 28 -22 c15 -12 34 -22 42 -22 7 0 16 -7
19 -15 10 -25 37 -18 31 8 -6 21 -6 21 8 3 8 -11 15 -35 15 -53 0 -23 5 -33
15 -33 20 0 20 52 0 90 l-16 30 60 0 60 0 -15 -35 c-19 -45 -18 -85 1 -85 10
0 15 10 15 33 0 18 7 42 15 53 14 18 14 18 8 -3 -6 -26 9 -30 27 -8 7 8 19 15
28 15 9 0 27 10 40 23 l25 22 -16 -26 c-9 -14 -33 -39 -52 -56 -34 -30 -45
-53 -26 -53 25 0 131 120 131 149 0 14 -66 44 -79 36 -6 -3 -11 -12 -11 -18 0
-7 -4 -18 -9 -25 -7 -12 -12 -12 -30 0 -18 11 -23 11 -31 -2 -7 -11 -10 -7
-10 18 0 18 -5 43 -12 55 -7 12 -11 35 -9 50 3 36 -14 57 -49 57 -15 0 -33 -7
-40 -14z"/>
</g>
</svg>
