<svg width="42" height="43" viewBox="0 0 42 43" fill="none" xmlns="http://www.w3.org/2000/svg">
<path d="M10 0.990234C4.48867 0.990234 0 5.4789 0 10.9902V32.9902C0 38.5016 4.48867 42.9902 10 42.9902H32C37.5113 42.9902 42 38.5016 42 32.9902V10.9902C42 5.4789 37.5113 0.990234 32 0.990234H10ZM10 2.99023H32C36.4307 2.99023 40 6.55957 40 10.9902V32.9902C40 37.4209 36.4307 40.9902 32 40.9902H10C5.56933 40.9902 2 37.4209 2 32.9902V10.9902C2 6.55957 5.56933 2.99023 10 2.99023ZM20.4531 8.17773C18.0547 8.33544 16 10.163 16 13.1543C16 17.3123 19.2648 21.9408 25.0078 24.8828C25.3128 25.0388 25.6862 25.0388 25.9922 24.8828C31.7352 21.9418 35 17.3133 35 13.1543C35 8.3683 29.7395 6.55959 26.2285 9.80859C25.8155 10.1916 25.1845 10.1916 24.7715 9.80859C23.4545 8.59022 21.8922 8.08311 20.4531 8.17773Z" fill="black"/>
</svg>
