<?xml version="1.0" standalone="no"?>
<!DOCTYPE svg PUBLIC "-//W3C//DTD SVG 20010904//EN"
 "http://www.w3.org/TR/2001/REC-SVG-20010904/DTD/svg10.dtd">
<svg version="1.0" xmlns="http://www.w3.org/2000/svg"
 width="50.000000pt" height="50.000000pt" viewBox="0 0 50.000000 50.000000"
 preserveAspectRatio="xMidYMid meet">
<metadata>
Created by potrace 1.16, written by Peter Selinger 2001-2019
</metadata>
<g transform="translate(0.000000,50.000000) scale(0.100000,-0.100000)"
fill="#000000" stroke="none">
<path d="M145 481 c-92 -41 -145 -126 -145 -231 0 -148 102 -250 250 -250 148
0 250 102 250 250 0 105 -53 190 -145 231 -54 25 -156 25 -210 0z m179 -13
c54 -16 128 -90 144 -144 27 -91 8 -169 -58 -234 -93 -94 -227 -94 -320 0 -94
93 -94 226 0 320 65 66 143 85 234 58z"/>
<path d="M104 377 c-2 -7 -3 -69 -2 -138 l3 -124 145 0 145 0 0 135 0 135
-143 3 c-111 2 -144 0 -148 -11z m266 -127 l0 -120 -120 0 -120 0 0 120 0 120
120 0 120 0 0 -120z"/>
</g>
</svg>
