<svg width="50" height="50" viewBox="0 0 50 50" fill="none" xmlns="http://www.w3.org/2000/svg">
<path d="M25 50C11.2143 50 0 38.7857 0 25C0 11.2143 11.2143 0 25 0C38.7857 0 50 11.2143 50 25C50 38.7857 38.7857 50 25 50ZM25 1.42857C12 1.42857 1.42857 12 1.42857 25C1.42857 38 12 48.5714 25 48.5714C38 48.5714 48.5714 38 48.5714 25C48.5714 12 38 1.42857 25 1.42857Z" fill="black"/>
<path d="M37.4285 38.4286H12.5714C11.5714 38.4286 10.7857 37.6429 10.7857 36.6429V13.3572C10.7857 12.3572 11.5714 11.5714 12.5714 11.5714H37.5C38.5 11.5714 39.2857 12.3572 39.2857 13.3572V36.6429C39.2142 37.6429 38.4285 38.4286 37.4285 38.4286ZM12.5714 13C12.3571 13 12.2142 13.1429 12.2142 13.3572V36.6429C12.2142 36.8572 12.3571 37 12.5714 37H37.5C37.7142 37 37.8571 36.8572 37.8571 36.6429V13.3572C37.8571 13.1429 37.7142 13 37.5 13H12.5714Z" fill="black"/>
<path d="M26.0714 28.2857L22.6429 24.1428L17.7143 27.7857L16.8571 26.6428L22.9286 22.2143L26.1429 26.1428L31.5714 21L32.5714 22L26.0714 28.2857Z" fill="black"/>
<path d="M30.8571 19.7857L33.6428 19.5C33.9286 19.5 34.1428 19.7143 34.0714 19.9286L33.7857 22.7143C33.7143 23.0714 33.2857 23.2143 33.0714 23L30.5714 20.5C30.3571 20.2143 30.5 19.7857 30.8571 19.7857Z" fill="black"/>
</svg>
